<svg viewBox="0 0 151 57" fill="none" xmlns="http://www.w3.org/2000/svg">
<path d="M52.8435 27.7828C55.3781 27.7828 57.5425 26.8145 58.7956 25.5614V17.331H52.3024V20.0935H55.7483V24.0521C55.1788 24.5647 54.182 24.8495 53.1852 24.8495C49.4545 24.8495 47.5179 22.2864 47.5179 18.0999C47.5179 13.942 49.7108 11.4358 52.9859 11.4358C54.6946 11.4358 55.7768 12.0054 56.7166 12.9168L58.5108 10.8378C57.3432 9.61319 55.5205 8.47403 52.872 8.47403C47.9166 8.47403 44.0435 12.0909 44.0435 18.1854C44.0435 24.3653 47.8027 27.7828 52.8435 27.7828Z" fill="black"/>
<path d="M61.6091 27.4411H64.9981V18.9543C65.824 16.8184 67.1625 16.0779 68.2732 16.0779C68.8428 16.0779 69.1845 16.1349 69.6117 16.2488L70.2952 13.3724C69.868 13.2015 69.4124 13.0876 68.7004 13.0876C67.2195 13.0876 65.7386 14.1129 64.7133 15.9355H64.6279L64.3716 13.4294H61.6091V27.4411Z" fill="black"/>
<path d="M71.3166 27.4411H74.7056V13.4294H71.3166V27.4411ZM73.0253 11.0371C74.2214 11.0371 75.0473 10.2682 75.0473 9.12904C75.0473 7.98988 74.2214 7.22095 73.0253 7.22095C71.8292 7.22095 71.0033 7.98988 71.0033 9.12904C71.0033 10.2682 71.8292 11.0371 73.0253 11.0371Z" fill="black"/>
<path d="M82.7247 27.7828C84.2056 27.7828 85.6296 26.9569 86.6548 25.9317H86.7688L87.0251 27.4411H89.759V7.33486H86.3985V12.3757L86.5409 14.6255C85.4587 13.6857 84.462 13.0876 82.8956 13.0876C79.8199 13.0876 76.972 15.8786 76.972 20.4637C76.972 25.0773 79.2218 27.7828 82.7247 27.7828ZM83.5506 24.9919C81.5571 24.9919 80.4179 23.4255 80.4179 20.4067C80.4179 17.5304 81.8704 15.8786 83.6076 15.8786C84.5474 15.8786 85.4587 16.1634 86.3985 17.0177V23.454C85.5157 24.5362 84.6043 24.9919 83.5506 24.9919Z" fill="black"/>
<path d="M97.9154 27.4411H108.994V24.5932H101.304V8.81577H97.9154V27.4411Z" fill="black"/>
<path d="M114.343 27.7828C115.994 27.7828 117.361 26.9854 118.614 25.9032H118.728L119.013 27.4411H121.747V19.1537C121.747 15.252 119.981 13.0876 116.507 13.0876C114.286 13.0876 112.292 13.942 110.754 14.9103L111.95 17.1316C113.203 16.3912 114.513 15.8216 115.88 15.8216C117.76 15.8216 118.33 17.0177 118.387 18.4417C112.634 19.0682 110.185 20.6061 110.185 23.6818C110.185 26.131 111.893 27.7828 114.343 27.7828ZM115.368 25.1058C114.229 25.1058 113.431 24.6501 113.431 23.454C113.431 22.03 114.57 21.1757 118.387 20.72V23.6818C117.361 24.6501 116.507 25.1058 115.368 25.1058Z" fill="black"/>
<path d="M132.473 27.7828C135.577 27.7828 138.425 25.0203 138.425 20.2074C138.425 15.9071 136.403 13.0876 132.9 13.0876C131.476 13.0876 130.052 13.7996 128.885 14.8248L128.999 12.518V7.33486H125.61V27.4411H128.258L128.571 25.9601H128.657C129.824 27.1278 131.191 27.7828 132.473 27.7828ZM131.733 24.9919C130.935 24.9919 129.938 24.7071 128.999 23.8812V17.4164C130.024 16.3627 130.992 15.8786 131.989 15.8786C134.068 15.8786 134.979 17.5019 134.979 20.2643C134.979 23.397 133.555 24.9919 131.733 24.9919Z" fill="black"/>
<path d="M145.503 27.7828C149.063 27.7828 151 25.8462 151 23.4255C151 21.0048 149.092 19.8941 146.927 19.1537C145.162 18.5556 144.165 18.1569 144.165 17.1316C144.165 16.3058 144.792 15.6223 146.187 15.6223C147.298 15.6223 148.323 15.964 149.32 16.7045L150.772 14.7964C149.633 13.7996 148.01 13.0876 146.102 13.0876C142.969 13.0876 140.975 14.8533 140.975 17.3025C140.975 19.5239 142.855 20.6915 144.877 21.432C146.443 22.0016 147.81 22.4572 147.81 23.6249C147.81 24.5647 147.098 25.2482 145.617 25.2482C144.193 25.2482 142.912 24.821 141.687 23.8242L140.206 25.7323C141.573 27.0424 143.567 27.7828 145.503 27.7828Z" fill="black"/>
<path d="M21.106 11.2017V5.6958C21.106 4.18518 21.7061 2.73642 22.7742 1.66825C23.8424 0.600082 25.2912 0 26.8018 0V0V17.8469L23.9918 16.2141C23.1124 15.7063 22.3825 14.9755 21.8758 14.0955C21.3691 13.2154 21.1035 12.2172 21.106 11.2017V11.2017Z" fill="#66B6E5"/>
<path d="M26.6498 32.39C27.751 27.6814 23.726 19.8592 21.5995 14.7709C20.8021 12.6065 20.954 9.15108 21.1059 5.96143C26.7637 15.9101 35.8011 22.1375 35.5353 29.7319C35.4416 30.3154 35.2889 30.888 35.0796 31.4407C31.3963 35.5416 29.6496 37.4023 25.3967 37.2884C24.8651 37.2884 23.9918 37.706 23.4222 37.6681L25.2448 36.9086C26.8776 35.1999 26.1562 34.5923 26.6498 32.39Z" fill="#026BB1"/>
<path d="M14.4605 11.2017V5.6958C14.4605 4.18518 13.8604 2.73642 12.7922 1.66825C11.724 0.600082 10.2753 0 8.76465 0V0V17.8469L11.5746 16.2141C12.454 15.7063 13.1839 14.9755 13.6906 14.0955C14.1973 13.2154 14.4629 12.2172 14.4605 11.2017Z" fill="#E85C26"/>
<path d="M8.87878 32.39C7.81556 27.6814 11.8026 19.8592 13.967 14.7709C14.7644 12.6065 14.6126 9.15108 14.4607 5.96143C8.76487 15.9101 -0.158559 21.9097 0.031301 29.7319C0.124982 30.3154 0.277652 30.888 0.486964 31.4407C4.17025 35.5416 5.91696 37.4023 10.1698 37.2884C10.7014 37.2884 11.5748 37.706 12.1444 37.6681L10.3217 36.9086C8.68892 35.1999 9.41039 34.5923 8.87878 32.39Z" fill="#F09021"/>
<path d="M35.2312 26.9224C33.3784 28.1927 31.3596 29.2021 29.2317 29.9222C21.8111 32.5424 13.7171 32.5424 6.29655 29.9222C4.1836 29.1946 2.17835 28.1856 0.334935 26.9224C-0.31059 29.7703 -0.0447831 34.0611 1.32221 35.542C3.98025 38.4659 11.1949 39.9088 17.7641 39.8329C24.3333 39.7569 31.5859 38.4659 34.244 35.542C35.611 34.0611 35.8388 29.7703 35.2312 26.9224Z" fill="#A7A836"/>
<path d="M45.164 46H47.456C49.244 46 50.396 45.22 50.396 43.696C50.396 42.604 49.712 41.956 48.692 41.788V41.74C49.484 41.5 49.916 40.84 49.916 40.012C49.916 38.692 48.896 38.092 47.3 38.092H45.164V46ZM45.716 41.572V38.548H47.144C48.596 38.548 49.364 38.956 49.364 40.072C49.364 40.996 48.704 41.572 47.084 41.572H45.716ZM45.716 45.544V42.028H47.312C48.932 42.028 49.856 42.568 49.856 43.708C49.856 44.968 48.884 45.544 47.312 45.544H45.716ZM51.6846 48.628C52.7166 48.628 53.2926 47.692 53.6166 46.72L55.8966 40.24H55.3566L54.1206 43.864C53.9646 44.344 53.7726 44.968 53.5926 45.472H53.5446C53.3286 44.968 53.1006 44.344 52.9206 43.864L51.5286 40.24H50.9526L53.3166 46.108L53.1606 46.612C52.8726 47.488 52.3926 48.136 51.6846 48.136C51.5166 48.136 51.3366 48.088 51.2166 48.04L51.0966 48.508C51.2526 48.58 51.4686 48.628 51.6846 48.628ZM62.4935 46.144C63.5255 46.144 64.3415 45.772 64.8335 45.244V42.112H62.4095V42.58H64.3055V45.04C63.9215 45.424 63.2495 45.64 62.5295 45.64C60.7295 45.64 59.6735 44.224 59.6735 42.028C59.6735 39.832 60.7895 38.452 62.6015 38.452C63.4655 38.452 64.0175 38.824 64.4255 39.268L64.7495 38.896C64.3295 38.452 63.6575 37.948 62.5895 37.948C60.5015 37.948 59.0975 39.52 59.0975 42.028C59.0975 44.548 60.4535 46.144 62.4935 46.144ZM66.8071 46H67.3351V42.076C67.7791 40.996 68.3911 40.6 68.9071 40.6C69.1351 40.6 69.2431 40.624 69.4351 40.696L69.5551 40.216C69.3631 40.12 69.1951 40.096 68.9791 40.096C68.2951 40.096 67.7311 40.6 67.3471 41.308H67.3111L67.2631 40.24H66.8071V46ZM70.6157 46H71.1437V40.24H70.6157V46ZM70.8917 38.848C71.1557 38.848 71.3717 38.656 71.3717 38.38C71.3717 38.08 71.1557 37.9 70.8917 37.9C70.6277 37.9 70.4117 38.08 70.4117 38.38C70.4117 38.656 70.6277 38.848 70.8917 38.848ZM75.2659 46.144C76.0339 46.144 76.6699 45.724 77.1379 45.256H77.1739L77.2219 46H77.6779V37.372H77.1499V39.748L77.1739 40.804C76.5979 40.36 76.1299 40.096 75.4339 40.096C74.0659 40.096 72.8779 41.272 72.8779 43.132C72.8779 45.076 73.8139 46.144 75.2659 46.144ZM75.3379 45.676C74.1139 45.676 73.4419 44.656 73.4419 43.132C73.4419 41.68 74.3179 40.564 75.4699 40.564C76.0339 40.564 76.5379 40.768 77.1499 41.308V44.728C76.5379 45.34 75.9739 45.676 75.3379 45.676ZM82.3476 46H84.1956C86.6196 46 87.7716 44.416 87.7716 42.016C87.7716 39.628 86.6196 38.092 84.1836 38.092H82.3476V46ZM82.8996 45.532V38.56H84.1236C86.2716 38.56 87.1956 39.964 87.1956 42.016C87.1956 44.08 86.2716 45.532 84.1236 45.532H82.8996ZM89.3018 48.628C90.3338 48.628 90.9098 47.692 91.2338 46.72L93.5138 40.24H92.9738L91.7378 43.864C91.5818 44.344 91.3898 44.968 91.2098 45.472H91.1618C90.9458 44.968 90.7178 44.344 90.5378 43.864L89.1458 40.24H88.5698L90.9338 46.108L90.7778 46.612C90.4898 47.488 90.0098 48.136 89.3018 48.136C89.1338 48.136 88.9538 48.088 88.8338 48.04L88.7138 48.508C88.8698 48.58 89.0858 48.628 89.3018 48.628ZM94.7563 46H95.2843V41.656C95.9923 40.936 96.4843 40.576 97.1683 40.576C98.1043 40.576 98.4883 41.152 98.4883 42.376V46H99.0163V42.304C99.0163 40.816 98.4643 40.096 97.2763 40.096C96.4843 40.096 95.8843 40.54 95.2963 41.128H95.2603L95.2123 40.24H94.7563V46ZM102.403 46.144C103.159 46.144 103.855 45.724 104.443 45.256H104.479L104.527 46H104.983V42.316C104.983 41.08 104.515 40.096 103.159 40.096C102.223 40.096 101.419 40.552 101.011 40.84L101.251 41.236C101.647 40.948 102.319 40.564 103.087 40.564C104.227 40.564 104.467 41.512 104.455 42.388C101.887 42.676 100.735 43.288 100.735 44.56C100.735 45.652 101.491 46.144 102.403 46.144ZM102.499 45.688C101.839 45.688 101.275 45.364 101.275 44.536C101.275 43.624 102.079 43.072 104.455 42.796V44.752C103.735 45.364 103.159 45.688 102.499 45.688ZM107.038 46H107.566V41.656C108.202 40.936 108.778 40.576 109.294 40.576C110.182 40.576 110.59 41.152 110.59 42.376V46H111.118V41.656C111.754 40.936 112.306 40.576 112.846 40.576C113.722 40.576 114.13 41.152 114.13 42.376V46H114.67V42.304C114.67 40.816 114.094 40.096 112.942 40.096C112.282 40.096 111.646 40.552 110.986 41.272C110.782 40.564 110.314 40.096 109.39 40.096C108.754 40.096 108.094 40.54 107.578 41.128H107.542L107.494 40.24H107.038V46ZM116.776 46H117.304V40.24H116.776V46ZM117.052 38.848C117.316 38.848 117.532 38.656 117.532 38.38C117.532 38.08 117.316 37.9 117.052 37.9C116.788 37.9 116.572 38.08 116.572 38.38C116.572 38.656 116.788 38.848 117.052 38.848ZM121.654 46.144C122.386 46.144 122.998 45.82 123.49 45.388L123.214 45.016C122.818 45.376 122.29 45.676 121.678 45.676C120.418 45.676 119.59 44.644 119.59 43.132C119.59 41.608 120.502 40.564 121.678 40.564C122.242 40.564 122.674 40.828 123.046 41.176L123.358 40.804C122.962 40.444 122.458 40.096 121.666 40.096C120.262 40.096 119.038 41.2 119.038 43.132C119.038 45.04 120.166 46.144 121.654 46.144ZM126.301 46.144C127.549 46.144 128.245 45.388 128.245 44.524C128.245 43.396 127.261 43.096 126.361 42.76C125.677 42.508 125.005 42.256 125.005 41.596C125.005 41.068 125.413 40.552 126.301 40.552C126.889 40.552 127.297 40.78 127.681 41.068L127.969 40.696C127.549 40.348 126.937 40.096 126.325 40.096C125.125 40.096 124.465 40.792 124.465 41.632C124.465 42.616 125.425 42.964 126.301 43.276C126.961 43.516 127.705 43.828 127.705 44.548C127.705 45.16 127.237 45.688 126.337 45.688C125.509 45.688 124.993 45.364 124.501 44.956L124.189 45.352C124.705 45.784 125.449 46.144 126.301 46.144Z" fill="black"/>
</svg>
