<?xml version="1.0" encoding="UTF-8"?>
<svg width="32px" height="32px" version="1.1" xmlns="http://www.w3.org/2000/svg" xmlns:xlink="http://www.w3.org/1999/xlink">
    <!-- Generator: Sketch 52.4 (67378) - http://www.bohemiancoding.com/sketch -->
    <title>logo</title>
    <desc>Created with Sketch.</desc>
    <g id="Services" stroke="none" stroke-width="1" fill="none" fill-rule="evenodd">
        <g id="services_our-services-1440" transform="translate(-130.000000, -23.000000)">
            <g id="header-/-industry">
                <g id="header">
                    <g id="logo" transform="translate(130.000000, 23.000000)">
                        <g id="logo-copy">
                            <path d="M29.2319623,20.4734485 C29.4173132,22.4967025 29.3781333,24.5603303 29.0933259,26.5706343 C25.8037251,30.3200531 14.4506092,32.1749566 7.24377651,31.6447665 L7.24377651,31.6417195 C6.15502866,30.0755258 5.60048305,28.3463139 5.45958627,26.5348312 C14.6171235,28.2655666 24.4218818,25.4668334 29.2319623,20.4734485" id="Fill-17" fill="#EA5B25"></path>
                            <path d="M31.7900222,16.3425894 L31.7900222,16.3425894 C30.0860746,8.28260177 21.0806773,0.698677658 14.9041494,0 L14.9041494,0.000752074982 C14.4026783,0.318879792 13.9855386,0.716727458 13.6489657,1.1815098 C17.2473598,1.51467901 20.3887074,3.91831065 23.9976429,7.77795946 C26.8009117,10.7787386 28.6757812,15.5709604 29.1358395,20.6203918 C29.3210676,22.6186551 29.2819137,24.6560262 28.9980479,26.64 C31.8909188,23.4745164 32.5354523,19.8630523 31.7900222,16.3425894" id="Fill-16" fill="#F29100"></path>
                            <path d="M21.633493,22.1795692 L21.3276309,22.1061721 C19.7231966,21.4327344 18.094232,19.8732343 16.6730083,17.8710813 C21.472513,12.1241607 18.8140427,7.75892242 15.454926,6.86453662 C15.0825947,6.76422649 14.701807,6.7067996 14.3216302,6.69508432 C13.6780039,6.67525075 13.0361283,6.78643278 12.44,7.04235444 C13.3897852,6.59576825 14.4278767,6.24206152 15.4856929,6.18856808 C18,6.06142035 20.6323361,6.74768253 22.3088426,9.20113843 C24.4590759,12.5789203 24.027496,18.6670998 21.633493,22.1795692 Z" id="Fill-18" fill="#0069B3"></path>
                            <path d="M16,6.18234165 C15.1493027,6.93165786 13.8847252,8.04844116 13,9 C12.7888724,8.19175698 12.7095896,7.26552652 12.6252932,6.49147559 C12.637667,6.48492817 12.6438539,6.48056322 12.654681,6.47838075 C14,6.18234165 15,6.18234165 16,6.18234165 Z" id="Fill-19" fill="#A9AA00"></path>
                            <path d="M5.58879617,26.5750695 C5.285508,22.7141759 6.90076456,18.4792323 9.21305182,14.6963289 C9.01542043,12.917698 8.94700957,11.1405815 8.96221198,9.55427597 C5.16388868,13.0645922 0.600883929,19.8482253 0.0543571226,24.964534 C-0.230688152,27.6313445 0.576560066,29.8423289 3.15945031,30.8993611 C4.23958187,31.2832546 5.70129404,31.5316118 7.38876207,31.654276 L7.38876207,31.6512472 C6.28962749,30.0944719 5.73017863,28.3756588 5.58879617,26.5750695" id="Fill-21" fill="#A9AA00"></path>
                            <path d="M21.5360172,21.8485128 C19.9501222,21.1812332 18.3399803,19.6359934 16.9351788,17.6521486 C15.2538118,15.2821812 13.8634069,12.2779233 13.1579753,9.389877 C12.9511194,8.55615232 12.8048806,7.73442368 12.7230475,6.93593736 L12.7230475,6.93368811 C12.4896717,4.67993236 12.7904841,2.64360481 13.8323406,1.22957177 C14.1717964,0.766224778 14.5908122,0.369605753 15.0954496,0.0532102362 L15.0954496,0.0517107314 C13.2163193,-0.157470191 11.5955693,0.257892644 10.5211311,1.48223833 L10.5158271,1.48223833 C9.70052703,2.40818256 9.19285876,3.79447476 9.12239137,5.72058871 C8.99054916,6.70651312 8.89204636,8.11229889 8.87386123,9.72051781 C8.85870695,11.2919989 8.9269012,13.0516678 9.1239068,14.8120864 C9.87252807,21.4803844 12.5025528,28.1014479 19.7243234,23.9710619 C20.5418967,23.5009671 21.2511168,22.7887023 21.8383451,21.9219885 L21.5360172,21.8485128 Z" id="Fill-20" fill="#62B8E8"></path>
                        </g>
                    </g>
                </g>
            </g>
        </g>
    </g>
</svg>